<?xml version="1.0" standalone="no"?>
<!DOCTYPE svg PUBLIC "-//W3C//DTD SVG 20010904//EN"
 "http://www.w3.org/TR/2001/REC-SVG-20010904/DTD/svg10.dtd">
<svg version="1.0" xmlns="http://www.w3.org/2000/svg"
 width="545.000000pt" height="545.000000pt" viewBox="0 0 545.000000 545.000000"
 preserveAspectRatio="xMidYMid meet">
<metadata>
Created by potrace 1.14, written by Peter Selinger 2001-2017
</metadata>
<g transform="translate(0.000000,545.000000) scale(0.100000,-0.100000)"
fill="#000000" stroke="none">
<path d="M0 2743 l0 -2363 28 -1 c171 -3 1335 1 1339 5 3 3 5 421 5 930 0 696
3 925 11 928 7 3 148 4 315 4 197 -1 302 2 303 9 1 13 1 1152 0 1185 l-1 25
-314 -2 -315 -2 0 792 c0 436 0 806 0 823 l-1 31 -685 0 -685 0 0 -2364z"/>
<path d="M2119 5061 c-5 -37 0 -3029 5 -3121 8 -126 8 -136 20 -225 41 -306
143 -583 293 -793 319 -448 879 -643 1593 -556 127 15 223 37 350 80 323 110
611 332 796 615 97 149 191 371 219 520 3 13 11 58 19 99 8 41 18 93 22 115 4
22 9 767 11 1656 l4 1616 -686 0 c-495 0 -685 -3 -686 -11 0 -6 -2 -695 -3
-1531 -2 -1576 -2 -1565 -42 -1661 -18 -42 -66 -97 -108 -123 -59 -37 -155
-43 -243 -15 -73 23 -134 91 -165 182 l-23 67 -3 1546 -2 1546 -685 0 c-377 0
-685 -3 -686 -6z"/>
</g>
</svg>
